solid LIGGGHTS_STL_EXPORT
  facet normal 1 -0 0
    outer loop
      vertex 0.1 -0.158334 -0.474268
      vertex 0.1 -0.0802056 -0.493525
      vertex 0.1 0 0
    endloop
  endfacet
  facet normal 1 0 0
    outer loop
      vertex 0.1 0 0
      vertex 0.1 -0.0802056 -0.493525
      vertex 0.1 -3.96785e-15 -0.5
    endloop
  endfacet
  facet normal 1 -0 0
    outer loop
      vertex 0.1 0 0
      vertex 0.1 -3.96785e-15 -0.5
      vertex 0.1 0.0802056 -0.493525
    endloop
  endfacet
  facet normal 1 -0 0
    outer loop
      vertex 0.1 -0.360601 -0.346362
      vertex 0.1 -0.300371 -0.399721
      vertex 0.1 0 0
    endloop
  endfacet
  facet normal 1 0 0
    outer loop
      vertex 0.1 0 0
      vertex 0.1 -0.300371 -0.399721
      vertex 0.1 -0.232362 -0.442728
    endloop
  endfacet
  facet normal 1 0 0
    outer loop
      vertex 0.1 0 0
      vertex 0.1 -0.232362 -0.442728
      vertex 0.1 -0.158334 -0.474268
    endloop
  endfacet
  facet normal 1 -0 0
    outer loop
      vertex 0.1 -0.480259 -0.139109
      vertex 0.1 -0.451725 -0.214346
      vertex 0.1 0 0
    endloop
  endfacet
  facet normal 1 0 0
    outer loop
      vertex 0.1 0 0
      vertex 0.1 -0.451725 -0.214346
      vertex 0.1 -0.411492 -0.284032
    endloop
  endfacet
  facet normal 1 0 0
    outer loop
      vertex 0.1 0 0
      vertex 0.1 -0.411492 -0.284032
      vertex 0.1 -0.360601 -0.346362
    endloop
  endfacet
  facet normal 1 0 0
    outer loop
      vertex 0.1 -0.489895 0.100013
      vertex 0.1 -0.499594 0.020133
      vertex 0.1 0 0
    endloop
  endfacet
  facet normal 1 0 0
    outer loop
      vertex 0.1 0 0
      vertex 0.1 -0.499594 0.020133
      vertex 0.1 -0.496354 -0.0602683
    endloop
  endfacet
  facet normal 1 0 0
    outer loop
      vertex 0.1 0 0
      vertex 0.1 -0.496354 -0.0602683
      vertex 0.1 -0.480259 -0.139109
    endloop
  endfacet
  facet normal 1 0 0
    outer loop
      vertex 0.1 -0.387302 0.316223
      vertex 0.1 -0.433013 0.25
      vertex 0.1 0 0
    endloop
  endfacet
  facet normal 1 0 0
    outer loop
      vertex 0.1 0 0
      vertex 0.1 -0.433013 0.25
      vertex 0.1 -0.467508 0.177302
    endloop
  endfacet
  facet normal 1 0 0
    outer loop
      vertex 0.1 0 0
      vertex 0.1 -0.467508 0.177302
      vertex 0.1 -0.489895 0.100013
    endloop
  endfacet
  facet normal 1 0 0
    outer loop
      vertex 0.1 -0.195983 0.45999
      vertex 0.1 -0.267233 0.422595
      vertex 0.1 0 0
    endloop
  endfacet
  facet normal 1 0 0
    outer loop
      vertex 0.1 0 0
      vertex 0.1 -0.267233 0.422595
      vertex 0.1 -0.331561 0.374255
    endloop
  endfacet
  facet normal 1 0 0
    outer loop
      vertex 0.1 0 0
      vertex 0.1 -0.331561 0.374255
      vertex 0.1 -0.387302 0.316223
    endloop
  endfacet
  facet normal 1 0 0
    outer loop
      vertex 0.1 0.0402333 0.498379
      vertex 0.1 -0.0402333 0.498379
      vertex 0.1 0 0
    endloop
  endfacet
  facet normal 1 0 0
    outer loop
      vertex 0.1 0 0
      vertex 0.1 -0.0402333 0.498379
      vertex 0.1 -0.119658 0.485471
    endloop
  endfacet
  facet normal 1 0 0
    outer loop
      vertex 0.1 0 0
      vertex 0.1 -0.119658 0.485471
      vertex 0.1 -0.195983 0.45999
    endloop
  endfacet
  facet normal 1 0 0
    outer loop
      vertex 0.1 0.267233 0.422595
      vertex 0.1 0.195983 0.45999
      vertex 0.1 0 0
    endloop
  endfacet
  facet normal 1 0 -0
    outer loop
      vertex 0.1 0 0
      vertex 0.1 0.195983 0.45999
      vertex 0.1 0.119658 0.485471
    endloop
  endfacet
  facet normal 1 0 -0
    outer loop
      vertex 0.1 0 0
      vertex 0.1 0.119658 0.485471
      vertex 0.1 0.0402333 0.498379
    endloop
  endfacet
  facet normal 1 0 0
    outer loop
      vertex 0.1 0.433013 0.25
      vertex 0.1 0.387302 0.316223
      vertex 0.1 0 0
    endloop
  endfacet
  facet normal 1 0 -0
    outer loop
      vertex 0.1 0 0
      vertex 0.1 0.387302 0.316223
      vertex 0.1 0.331561 0.374255
    endloop
  endfacet
  facet normal 1 0 -0
    outer loop
      vertex 0.1 0 0
      vertex 0.1 0.331561 0.374255
      vertex 0.1 0.267233 0.422595
    endloop
  endfacet
  facet normal 1 0 0
    outer loop
      vertex 0.1 0.499594 0.020133
      vertex 0.1 0.489895 0.100013
      vertex 0.1 0 0
    endloop
  endfacet
  facet normal 1 0 -0
    outer loop
      vertex 0.1 0 0
      vertex 0.1 0.489895 0.100013
      vertex 0.1 0.467508 0.177302
    endloop
  endfacet
  facet normal 1 0 -0
    outer loop
      vertex 0.1 0 0
      vertex 0.1 0.467508 0.177302
      vertex 0.1 0.433013 0.25
    endloop
  endfacet
  facet normal 1 0 -0
    outer loop
      vertex 0.1 0.451725 -0.214346
      vertex 0.1 0.480259 -0.139109
      vertex 0.1 0 0
    endloop
  endfacet
  facet normal 1 -0 0
    outer loop
      vertex 0.1 0 0
      vertex 0.1 0.480259 -0.139109
      vertex 0.1 0.496354 -0.0602683
    endloop
  endfacet
  facet normal 1 -0 0
    outer loop
      vertex 0.1 0 0
      vertex 0.1 0.496354 -0.0602683
      vertex 0.1 0.499594 0.020133
    endloop
  endfacet
  facet normal 1 0 -0
    outer loop
      vertex 0.1 0.300371 -0.399721
      vertex 0.1 0.360601 -0.346362
      vertex 0.1 0 0
    endloop
  endfacet
  facet normal 1 -0 0
    outer loop
      vertex 0.1 0 0
      vertex 0.1 0.360601 -0.346362
      vertex 0.1 0.411492 -0.284032
    endloop
  endfacet
  facet normal 1 -0 0
    outer loop
      vertex 0.1 0 0
      vertex 0.1 0.411492 -0.284032
      vertex 0.1 0.451725 -0.214346
    endloop
  endfacet
  facet normal 1 0 -0
    outer loop
      vertex 0.1 0.0802056 -0.493525
      vertex 0.1 0.158334 -0.474268
      vertex 0.1 0 0
    endloop
  endfacet
  facet normal 1 -0 0
    outer loop
      vertex 0.1 0 0
      vertex 0.1 0.158334 -0.474268
      vertex 0.1 0.232362 -0.442728
    endloop
  endfacet
  facet normal 1 -0 0
    outer loop
      vertex 0.1 0 0
      vertex 0.1 0.232362 -0.442728
      vertex 0.1 0.300371 -0.399721
    endloop
  endfacet
endsolid LIGGGHTS_STL_EXPORT
